<?xml version="1.0" encoding="UTF-8" standalone="no"?>
<svg
   version="1.1"
   id="svg2"
   xml:space="preserve"
   width="268.63467"
   height="222.20532"
   viewBox="0 0 268.63468 222.20532"
   sodipodi:docname="octopus.svg"
   inkscape:version="1.2 (dc2aedaf03, 2022-05-15)"
   xmlns:inkscape="http://www.inkscape.org/namespaces/inkscape"
   xmlns:sodipodi="http://sodipodi.sourceforge.net/DTD/sodipodi-0.dtd"
   xmlns="http://www.w3.org/2000/svg"
   xmlns:svg="http://www.w3.org/2000/svg"
   xmlns:rdf="http://www.w3.org/1999/02/22-rdf-syntax-ns#"
   xmlns:cc="http://creativecommons.org/ns#"
   xmlns:dc="http://purl.org/dc/elements/1.1/"><metadata
     id="metadata8"><rdf:RDF><cc:Work
         rdf:about=""><dc:format>image/svg+xml</dc:format><dc:type
           rdf:resource="http://purl.org/dc/dcmitype/StillImage" /></cc:Work></rdf:RDF></metadata><defs
     id="defs6"><linearGradient
       x1="0"
       y1="0"
       x2="1"
       y2="0"
       gradientUnits="userSpaceOnUse"
       gradientTransform="matrix(4905,-4935,-4935,-4905,121.797,4892.75)"
       spreadMethod="pad"
       id="linearGradient18"><stop
         style="stop-opacity:1;stop-color:#282a65"
         offset="0"
         id="stop14" /><stop
         style="stop-opacity:1;stop-color:#1c1a39"
         offset="1"
         id="stop16" /></linearGradient></defs><sodipodi:namedview
     pagecolor="#ffffff"
     bordercolor="#666666"
     borderopacity="1"
     objecttolerance="10"
     gridtolerance="10"
     guidetolerance="10"
     inkscape:pageopacity="0"
     inkscape:pageshadow="2"
     inkscape:window-width="1366"
     inkscape:window-height="704"
     id="namedview4"
     inkscape:showpageshadow="2"
     inkscape:pagecheckerboard="0"
     inkscape:deskcolor="#d1d1d1"
     showgrid="false"
     inkscape:zoom="0.75149998"
     inkscape:cx="-172.32203"
     inkscape:cy="168.33001"
     inkscape:window-x="0"
     inkscape:window-y="0"
     inkscape:window-maximized="1"
     inkscape:current-layer="g10" /><g
     id="g10"
     inkscape:groupmode="layer"
     inkscape:label="ink_ext_XXXXXX"
     transform="matrix(1.3333333,0,0,-1.3333333,-201.42799,497.32132)"
     style="display:inline"><g
       id="g12"
       transform="scale(0.1)"
       style="fill:#ffffff"><path
         d="m 2343.6,2984.45 c 0,-30.38 -24.62,-55 -55,-55 -30.38,0 -55,24.62 -55,55 0,30.38 24.62,55 55,55 30.38,0 55,-24.62 55,-55"
         style="fill:#ffffff;fill-opacity:1;fill-rule:nonzero;stroke:none"
         id="path32" /><path
         d="m 2793.6,2984.45 c 0,-30.38 -24.63,-55 -55,-55 -30.37,0 -55,24.62 -55,55 0,30.38 24.63,55 55,55 30.37,0 55,-24.62 55,-55"
         style="fill:#ffffff;fill-opacity:1;fill-rule:nonzero;stroke:none"
         id="path34" /><path
         d="m 2512.38,2826.95 c -79.82,0 -98.1,76.25 -98.1,76.25 h 98.1 98.09 c 0,0 -18.27,-76.25 -98.09,-76.25 z m 710.19,761.67 c -27.45,0 -49.7,-22.26 -49.7,-49.71 v -33.52 c 0,-86.69 70.52,-157.22 157.21,-157.22 h 38.18 c 86.68,0 157.21,70.53 157.21,157.22 v 58.15 c 0,86.69 -70.53,157.22 -157.21,157.22 h -242.5 c -86.69,0 -157.22,-70.53 -157.22,-157.22 v -331.33 c 0,-31.87 -25.92,-57.8 -57.79,-57.8 h -46.62 c 0.52,7.76 0.88,15.56 0.88,23.45 v 184.61 c 0,191.88 -155.56,347.44 -347.45,347.44 v 0 c -191.88,0 -347.43,-155.56 -347.43,-347.44 v -184.61 c 0,-7.89 0.35,-15.69 0.87,-23.45 h -45.56 c -31.87,0 -57.8,25.93 -57.8,57.8 v 331.33 c 0,86.69 -70.53,157.22 -157.22,157.22 h -242.49 c -86.69,0 -157.22,-70.53 -157.22,-157.22 v -58.15 c 0,-86.69 70.53,-157.22 157.22,-157.22 h 38.17 c 86.68,0 157.21,70.53 157.21,157.22 v 33.52 c 0,27.45 -22.25,49.71 -49.71,49.71 -27.45,0 -49.7,-22.26 -49.7,-49.71 v -33.52 c 0,-31.87 -25.93,-57.81 -57.8,-57.81 h -38.17 c -31.87,0 -57.81,25.94 -57.81,57.81 v 58.15 c 0,31.88 25.94,57.8 57.81,57.8 h 242.49 c 31.87,0 57.8,-25.92 57.8,-57.8 v -331.33 c 0,-86.69 70.53,-157.21 157.22,-157.21 h 67.11 c 1.25,-3.31 2.67,-6.53 4.01,-9.79 12.47,39.63 49.49,68.38 93.23,68.38 53.97,0 97.72,-43.75 97.72,-97.72 0,-53.97 -43.75,-97.72 -97.72,-97.72 -43.08,0 -79.58,27.91 -92.58,66.62 -72.18,-14.21 -126.82,-77.86 -126.82,-154.14 v -446.82 c 0,-31.88 -25.94,-57.8 -57.81,-57.8 h -73.7 c -31.87,0 -57.8,25.92 -57.8,57.8 v 719.99 c 0,86.69 -70.53,157.22 -157.22,157.22 h -55.93 c -86.69,0 -157.22,-70.53 -157.22,-157.22 v -2.63 c 0,-86.69 70.53,-157.22 157.22,-157.22 27.45,0 49.71,22.26 49.71,49.71 0,27.45 -22.26,49.71 -49.71,49.71 -31.87,0 -57.81,25.92 -57.81,57.8 v 2.63 c 0,31.87 25.94,57.8 57.81,57.8 h 55.93 c 31.87,0 57.81,-25.93 57.81,-57.8 v -719.99 c 0,-86.68 70.52,-157.22 157.21,-157.22 h 73.7 c 86.69,0 157.22,70.54 157.22,157.22 v 446.82 c 0,31.87 25.93,57.8 57.8,57.8 h 2.49 v -59.45 c 0,-5.31 0.45,-10.51 1.11,-15.64 v -612.76 c 0,-31.87 -25.93,-57.79 -57.81,-57.79 h -505.46 c -31.87,0 -57.81,25.92 -57.81,57.79 v 241.39 c 0,31.87 25.94,57.79 57.81,57.79 27.45,0 49.71,22.26 49.71,49.71 0,27.46 -22.26,49.71 -49.71,49.71 -86.69,0 -157.22,-70.53 -157.22,-157.21 v -241.39 c 0,-86.69 70.53,-157.21 157.22,-157.21 h 505.46 c 86.69,0 157.22,70.52 157.22,157.21 v 507.94 c 7.16,-1.31 14.5,-2.09 22.03,-2.09 h 39.69 v -613.36 c 0,-27.45 22.25,-49.7 49.7,-49.7 27.45,0 49.7,22.25 49.7,49.7 v 613.36 h 51.66 v -613.36 c 0,-27.45 22.26,-49.7 49.71,-49.7 27.45,0 49.71,22.25 49.71,49.7 v 613.36 h 39.69 c 7.89,0 15.59,0.82 23.07,2.25 v -508.1 c 0,-86.69 70.53,-157.21 157.22,-157.21 h 505.47 c 86.68,0 157.21,70.52 157.21,157.21 v 241.39 c 0,86.68 -70.53,157.21 -157.21,157.21 -27.45,0 -49.72,-22.25 -49.72,-49.71 0,-27.45 22.27,-49.71 49.72,-49.71 31.87,0 57.79,-25.92 57.79,-57.79 v -241.39 c 0,-31.87 -25.92,-57.79 -57.79,-57.79 h -505.47 c -31.88,0 -57.8,25.92 -57.8,57.79 v 627.38 c 0.01,0.34 0.06,0.67 0.06,1.02 v 59.45 h 3.53 c 31.88,0 57.8,-25.93 57.8,-57.8 v -446.82 c 0,-86.68 70.53,-157.22 157.22,-157.22 h 73.7 c 86.69,0 157.22,70.54 157.22,157.22 v 719.99 c 0,31.87 25.93,57.8 57.8,57.8 h 55.94 c 31.87,0 57.79,-25.93 57.79,-57.8 v -2.63 c 0,-31.88 -25.92,-57.8 -57.79,-57.8 -27.45,0 -49.72,-22.26 -49.72,-49.71 0,-27.45 22.27,-49.71 49.72,-49.71 86.68,0 157.21,70.53 157.21,157.22 v 2.63 c 0,86.69 -70.53,157.22 -157.21,157.22 h -55.94 c -86.69,0 -157.22,-70.53 -157.22,-157.22 v -719.99 c 0,-31.88 -25.92,-57.8 -57.8,-57.8 h -73.7 c -31.88,0 -57.8,25.92 -57.8,57.8 v 446.82 c 0,79.63 -59.57,145.47 -136.46,155.68 -12.54,-39.52 -49.48,-68.16 -93.14,-68.16 -53.98,0 -97.73,43.75 -97.73,97.72 0,53.97 43.75,97.72 97.73,97.72 48.63,0 88.85,-35.58 96.35,-82.1 3.59,7.71 7.01,15.51 10.03,23.51 h 68.17 c 86.68,0 157.22,70.52 157.22,157.21 v 331.33 c 0,31.88 25.91,57.8 57.79,57.8 h 242.5 c 31.87,0 57.79,-25.92 57.79,-57.8 v -58.15 c 0,-31.87 -25.92,-57.81 -57.79,-57.81 h -38.18 c -31.87,0 -57.79,25.94 -57.79,57.81 v 33.52 c 0,27.45 -22.26,49.71 -49.72,49.71"
         style="fill:#ffd54f;fill-opacity:1;fill-rule:nonzero;stroke:none"
         id="path36" /></g></g></svg>
